<svg width="16" height="16" viewBox="0 0 16 16" fill="none" xmlns="http://www.w3.org/2000/svg">
<path fill-rule="evenodd" clip-rule="evenodd" d="M10.3619 1.52864C10.6223 1.26829 11.0444 1.26829 11.3047 1.52864L13.6179 3.84175C14.0735 4.29736 14.0735 5.03605 13.6179 5.49166L11.3047 7.80478C11.0444 8.06513 10.6223 8.06513 10.3619 7.80478C10.1016 7.54443 10.1016 7.12232 10.3619 6.86197L11.8905 5.33337H2.66667C2.29848 5.33337 2 5.0349 2 4.66671C2 4.29852 2.29848 4.00004 2.66667 4.00004H11.8905L10.3619 2.47145C10.1016 2.2111 10.1016 1.78899 10.3619 1.52864ZM5.63807 8.1953C5.89842 8.45565 5.89842 8.87776 5.63807 9.13811L4.10948 10.6667H13.3333C13.7015 10.6667 14 10.9652 14 11.3334C14 11.7016 13.7015 12 13.3333 12H4.10948L5.63807 13.5286C5.89842 13.789 5.89842 14.2111 5.63807 14.4714C5.37772 14.7318 4.95561 14.7318 4.69526 14.4714L2.38215 12.1583C1.92654 11.7027 1.92654 10.964 2.38215 10.5084L4.69526 8.1953C4.95561 7.93495 5.37772 7.93495 5.63807 8.1953Z" fill="#1C1C1C"/>
</svg>
