<svg width="32" height="32" viewBox="0 0 32 32" fill="none" xmlns="http://www.w3.org/2000/svg">
<g clip-path="url(#clip0_1781_1580)">
<path d="M16 31.8013C7.16344 31.8013 -4.8936e-06 24.6823 -4.50974e-06 15.9006C-4.12588e-06 7.11895 7.16344 -1.08564e-06 16 -6.99382e-07C24.8366 -3.13124e-07 32 7.11895 32 15.9006C32 24.6823 24.8366 31.8013 16 31.8013Z" fill="#FDFDFD"/>
<path d="M29.9687 8.14907C27.2319 3.28697 21.9999 -3.48328e-07 15.9955 -6.10791e-07C9.99104 -8.73253e-07 4.75911 3.28697 2.02222 8.14907L29.9687 8.14907Z" fill="#338AF3"/>
<path d="M29.9687 8.14907C27.2319 3.28697 21.9999 -3.48328e-07 15.9955 -6.10791e-07C9.99104 -8.73253e-07 4.75911 3.28697 2.02222 8.14907L29.9687 8.14907Z" fill="#338AF3"/>
<path d="M2.03125 23.8509C4.76814 28.713 10.0001 32 16.0045 32C22.009 32 27.2409 28.713 29.9778 23.8509L2.03125 23.8509Z" fill="#338AF3"/>
<path d="M2.03125 23.8509C4.76814 28.713 10.0001 32 16.0045 32C22.009 32 27.2409 28.713 29.9778 23.8509L2.03125 23.8509Z" fill="#338AF3"/>
<path d="M15.5 12.5686L13.8704 11L13.463 13.1569L11.0185 12.9608L12.037 14.9216L10 15.902L12.037 16.8824L11.2222 18.8431L13.463 18.6471L13.8704 21L15.5 19.2353L17.1296 21L17.537 18.6471L19.7778 18.8431L18.963 16.8824L21 15.902L18.7593 14.9216L19.7778 12.9608L17.537 13.1569L17.1296 11L15.5 12.5686Z" fill="#FFDA44"/>
<circle cx="16" cy="16" r="16" fill="url(#paint0_linear_1781_1580)"/>
</g>
<path d="M16 0.5C24.5604 0.5 31.5 7.43959 31.5 16C31.5 24.5604 24.5604 31.5 16 31.5C7.43959 31.5 0.5 24.5604 0.5 16C0.5 7.43959 7.43959 0.5 16 0.5Z" stroke="#202020" stroke-opacity="0.2"/>
<defs>
<linearGradient id="paint0_linear_1781_1580" x1="16" y1="15.5" x2="16" y2="32" gradientUnits="userSpaceOnUse">
<stop stop-color="white" stop-opacity="0"/>
<stop offset="0.455749" stop-color="white" stop-opacity="0.159512"/>
<stop offset="1" stop-color="white" stop-opacity="0.15"/>
</linearGradient>
<clipPath id="clip0_1781_1580">
<path d="M0 16C0 7.16344 7.16344 0 16 0C24.8366 0 32 7.16344 32 16C32 24.8366 24.8366 32 16 32C7.16344 32 0 24.8366 0 16Z" fill="white"/>
</clipPath>
</defs>
</svg>
