<svg width="32" height="32" viewBox="0 0 32 32" fill="none" xmlns="http://www.w3.org/2000/svg">
<g clip-path="url(#clip0_642_1897)">
<path d="M-17 -7H48.7142V38.9999H-17V-7Z" fill="#009440"/>
<path d="M1.625 15.9998L15.8536 25.0856L30.0823 15.9998L15.8536 6.91406L1.625 15.9998Z" fill="#FFCB00"/>
<path d="M15.8594 22C19.1731 22 21.8594 19.3137 21.8594 16C21.8594 12.6863 19.1731 10 15.8594 10C12.5457 10 9.85938 12.6863 9.85938 16C9.85938 19.3137 12.5457 22 15.8594 22Z" fill="#302681"/>
<mask id="mask0_642_1897" style="mask-type:luminance" maskUnits="userSpaceOnUse" x="9" y="10" width="13" height="12">
<path d="M15.8594 22C19.1731 22 21.8594 19.3137 21.8594 16C21.8594 12.6863 19.1731 10 15.8594 10C12.5457 10 9.85938 12.6863 9.85938 16C9.85938 19.3137 12.5457 22 15.8594 22Z" fill="white"/>
</mask>
<g mask="url(#mask0_642_1897)">
<path d="M-2.14062 28.0012C-2.14062 24.1366 -0.605419 20.4303 2.12726 17.6976C4.85995 14.9649 8.56626 13.4297 12.4309 13.4297C16.2955 13.4297 20.0018 14.9649 22.7345 17.6976C25.4671 20.4303 27.0023 24.1366 27.0023 28.0012H26.1452C26.1452 24.3639 24.7003 20.8756 22.1284 18.3037C19.5564 15.7317 16.0681 14.2868 12.4309 14.2868C8.79359 14.2868 5.3053 15.7317 2.73336 18.3037C0.16142 20.8756 -1.28348 24.3639 -1.28348 28.0012H-2.14062Z" fill="white"/>
</g>
<path fill-rule="evenodd" clip-rule="evenodd" d="M10.7389 14.2468C10.8066 14.2385 10.8679 14.2006 10.9092 14.1416C10.9505 14.0825 10.9686 14.0071 10.9593 13.9318C10.9501 13.8566 10.9144 13.7878 10.86 13.7405C10.8056 13.6932 10.737 13.6713 10.6693 13.6796C10.6016 13.6879 10.5403 13.7258 10.499 13.7848C10.4577 13.8439 10.4396 13.9193 10.4489 13.9945C10.4581 14.0697 10.4939 14.1386 10.5483 14.1859C10.6027 14.2332 10.6712 14.2551 10.7389 14.2468M10.726 14.1414C10.7658 14.1366 10.8016 14.1131 10.8256 14.0762C10.8496 14.0393 10.8598 13.9921 10.854 13.9448C10.8482 13.8975 10.8268 13.8541 10.7946 13.8241C10.7624 13.7941 10.722 13.7801 10.6822 13.7849C10.6425 13.7898 10.6066 13.8133 10.5826 13.8502C10.5586 13.887 10.5484 13.9343 10.5542 13.9816C10.56 14.0289 10.5814 14.0723 10.6136 14.1022C10.6458 14.1322 10.6862 14.1463 10.726 14.1414" fill="#009440"/>
<path fill-rule="evenodd" clip-rule="evenodd" d="M11.2039 14.195L11.3098 14.1876L11.295 13.9759L11.523 13.96C11.5705 13.9566 11.6148 13.9346 11.646 13.8986C11.6773 13.8627 11.6929 13.8158 11.6896 13.7683C11.6863 13.7208 11.6642 13.6765 11.6283 13.6453C11.5923 13.614 11.5455 13.5983 11.4979 13.6017L11.1722 13.6244L11.2039 14.195ZM11.2876 13.87L11.5075 13.8547C11.5269 13.8533 11.545 13.8443 11.5578 13.8296C11.5706 13.8149 11.577 13.7957 11.5756 13.7763C11.5743 13.7568 11.5652 13.7387 11.5505 13.7259C11.5358 13.7131 11.5166 13.7067 11.4972 13.7081L11.2773 13.7235L11.2876 13.87Z" fill="#009440"/>
<path d="M11.6857 14.1631C11.68 14.0817 11.6675 13.9025 11.5453 13.9111L11.3906 13.9219C11.5698 13.9093 11.5823 14.0885 11.588 14.1699" fill="#009440"/>
<path fill-rule="evenodd" clip-rule="evenodd" d="M11.9318 14.1495L12.2012 14.1448C12.2334 14.1442 12.2651 14.1373 12.2946 14.1245C12.3241 14.1117 12.3507 14.0932 12.3731 14.07C12.3954 14.0469 12.413 14.0196 12.4248 13.9897C12.4366 13.9597 12.4423 13.9278 12.4418 13.8956L12.4404 13.814C12.4398 13.7819 12.4329 13.7501 12.4201 13.7206C12.4073 13.6911 12.3888 13.6645 12.3656 13.6421C12.3425 13.6198 12.3152 13.6022 12.2853 13.5904C12.2553 13.5786 12.2234 13.5729 12.1912 13.5734L11.9219 13.5781L11.9318 14.1495ZM12.0361 14.0415L12.1912 14.0388C12.2323 14.0381 12.2715 14.0211 12.3 13.9915C12.3286 13.9619 12.3443 13.9221 12.3436 13.881L12.3427 13.832C12.342 13.7909 12.325 13.7518 12.2954 13.7232C12.2658 13.6946 12.226 13.679 12.1849 13.6797L12.0298 13.6824L12.0361 14.0415Z" fill="#009440"/>
<path d="M12.6519 14.1414L13.1659 14.1593L13.1696 14.0533L12.7535 14.0388L12.7587 13.8919L13.085 13.9033L13.0884 13.8054L12.7621 13.794L12.7661 13.6798L13.1577 13.6935L13.1614 13.5874L12.6719 13.5703L12.6519 14.1414Z" fill="#009440"/>
<path d="M13.3799 14.1786L13.4775 14.1872L13.5116 13.7968L13.5913 14.1971L13.6808 14.205L13.8288 13.8246L13.7946 14.2149L13.8922 14.2235L13.942 13.6542L13.7997 13.6417L13.6517 14.0221L13.572 13.6218L13.4297 13.6094L13.3799 14.1786Z" fill="#009440"/>
<path d="M14.5613 14.3115L14.9837 14.3841L15.0003 14.2876L14.6745 14.2316L14.6966 14.1029L14.9621 14.1485L14.9787 14.0519L14.7132 14.0063L14.7284 13.9178L15.0442 13.9721L15.0608 13.8755L14.6484 13.8047L14.5613 14.3115Z" fill="#009440"/>
<path fill-rule="evenodd" clip-rule="evenodd" d="M15.646 14.522L15.7487 14.5486L15.8019 14.3431L16.0232 14.4003C16.0693 14.4122 16.1182 14.4053 16.1593 14.3812C16.2003 14.357 16.2301 14.3175 16.242 14.2714C16.2539 14.2253 16.247 14.1763 16.2229 14.1353C16.1987 14.0942 16.1592 14.0645 16.1131 14.0526L15.797 13.9708L15.646 14.522ZM15.8284 14.2403L16.0418 14.2955C16.0607 14.3004 16.0807 14.2976 16.0975 14.2877C16.1143 14.2778 16.1265 14.2616 16.1314 14.2428C16.1362 14.2239 16.1334 14.2039 16.1235 14.1871C16.1136 14.1703 16.0975 14.1581 16.0786 14.1532L15.8652 14.0981L15.8284 14.2403Z" fill="#009440"/>
<path fill-rule="evenodd" clip-rule="evenodd" d="M16.3516 14.709L16.4528 14.741L16.5166 14.5385L16.7346 14.6073C16.7801 14.6216 16.8293 14.6173 16.8716 14.5953C16.9138 14.5733 16.9456 14.5354 16.9599 14.49C16.9742 14.4446 16.9699 14.3953 16.9479 14.3531C16.9259 14.3108 16.8881 14.279 16.8426 14.2647L16.5312 14.1665L16.3516 14.709ZM16.5486 14.4373L16.7588 14.5036C16.7773 14.5095 16.7975 14.5077 16.8148 14.4987C16.8321 14.4897 16.8451 14.4742 16.8509 14.4556C16.8568 14.437 16.855 14.4169 16.846 14.3996C16.837 14.3823 16.8215 14.3693 16.8029 14.3635L16.5927 14.2972L16.5486 14.4373Z" fill="#009440"/>
<path d="M16.8112 14.856C16.8357 14.7782 16.8897 14.6069 16.7729 14.5701L16.625 14.5234C16.7963 14.5774 16.7423 14.7487 16.7177 14.8266" fill="#009440"/>
<path fill-rule="evenodd" clip-rule="evenodd" d="M17.2829 15.0237C17.3468 15.0476 17.4186 15.0423 17.4825 15.009C17.5465 14.9757 17.5973 14.9171 17.6238 14.8462C17.6504 14.7752 17.6505 14.6976 17.6241 14.6306C17.5976 14.5635 17.5469 14.5124 17.483 14.4885C17.4192 14.4646 17.3474 14.4699 17.2834 14.5032C17.2195 14.5365 17.1687 14.5951 17.1421 14.6661C17.1156 14.737 17.1155 14.8146 17.1419 14.8817C17.1683 14.9487 17.219 14.9999 17.2829 15.0237M17.3201 14.9243C17.3576 14.9384 17.4002 14.9341 17.4385 14.9125C17.4769 14.8908 17.5078 14.8536 17.5244 14.809C17.5411 14.7644 17.5422 14.716 17.5275 14.6746C17.5128 14.6331 17.4834 14.6019 17.4459 14.5879C17.4084 14.5739 17.3658 14.5781 17.3274 14.5998C17.2891 14.6214 17.2582 14.6586 17.2415 14.7032C17.2248 14.7478 17.2238 14.7962 17.2385 14.8377C17.2532 14.8791 17.2826 14.9103 17.3201 14.9243" fill="#009440"/>
<mask id="mask1_642_1897" style="mask-type:luminance" maskUnits="userSpaceOnUse" x="17" y="14" width="2" height="2">
<path d="M17.7175 15.1881L17.9453 14.6641L18.4169 14.8691L18.1891 15.3932L17.7175 15.1881ZM18.1063 14.9388L18.0672 15.0286L18.303 15.1312L18.3421 15.0413L18.1063 14.9388Z" fill="white"/>
</mask>
<g mask="url(#mask1_642_1897)">
<path fill-rule="evenodd" clip-rule="evenodd" d="M17.9533 15.2906C18.0158 15.3178 18.0878 15.3163 18.1534 15.2864C18.219 15.2565 18.2728 15.2006 18.303 15.1312C18.3332 15.0617 18.3374 14.9842 18.3145 14.9158C18.2916 14.8475 18.2437 14.7938 18.1811 14.7666C18.1186 14.7394 18.0466 14.7409 17.981 14.7708C17.9154 14.8007 17.8616 14.8566 17.8314 14.9261C17.8012 14.9956 17.797 15.073 17.8199 15.1414C17.8428 15.2098 17.8907 15.2634 17.9533 15.2906M17.9956 15.1933C18.0323 15.2093 18.0751 15.2073 18.1145 15.1877C18.1539 15.1681 18.1867 15.1325 18.2057 15.0888C18.2247 15.0452 18.2283 14.9969 18.2158 14.9547C18.2032 14.9126 18.1755 14.8799 18.1388 14.8639C18.1021 14.8479 18.0593 14.85 18.0199 14.8696C17.9805 14.8892 17.9477 14.9247 17.9287 14.9684C17.9097 15.0121 17.9061 15.0603 17.9186 15.1025C17.9312 15.1447 17.9589 15.1773 17.9956 15.1933" fill="#009440"/>
</g>
<path d="M18.1016 15.0469L18.2999 15.1331L18.2674 15.208L18.069 15.1217L18.1016 15.0469Z" fill="#009440"/>
<path d="M18.2266 15.1016L18.3014 15.1341L18.1875 15.3961L18.1126 15.3636L18.2266 15.1016Z" fill="#009440"/>
<path fill-rule="evenodd" clip-rule="evenodd" d="M18.3778 15.488L18.4728 15.5353L18.5675 15.3454L18.7721 15.4473C18.8147 15.4686 18.864 15.4721 18.9092 15.4569C18.9544 15.4418 18.9917 15.4094 19.0129 15.3668C19.0342 15.3241 19.0376 15.2748 19.0225 15.2296C19.0074 15.1845 18.975 15.1472 18.9323 15.1259L18.6401 14.9802L18.3778 15.488ZM18.6149 15.2504L18.8121 15.3487C18.8296 15.3574 18.8497 15.3588 18.8682 15.3527C18.8867 15.3465 18.902 15.3332 18.9107 15.3158C18.9193 15.2983 18.9208 15.2782 18.9146 15.2597C18.9084 15.2412 18.8951 15.2259 18.8777 15.2172L18.6804 15.1189L18.6149 15.2504Z" fill="#009440"/>
<path d="M18.8115 15.7014C18.8479 15.6283 18.9281 15.4676 18.8185 15.413L18.6797 15.3438C18.8404 15.4239 18.7603 15.5846 18.7239 15.6577" fill="#009440"/>
<path d="M19.0311 15.8177L19.4787 16.0709L19.531 15.9785L19.1686 15.7735L19.241 15.6456L19.5252 15.8064L19.5734 15.7212L19.2892 15.5604L19.3455 15.4609L19.6865 15.6539L19.7388 15.5615L19.3125 15.3203L19.0311 15.8177Z" fill="#009440"/>
<path d="M19.8588 16.0949C19.8281 16.1431 19.8592 16.1968 19.9281 16.2407C19.9969 16.2845 20.0438 16.283 20.0636 16.252C20.1261 16.1539 19.7648 16.0108 19.8762 15.8398C19.9722 15.6929 20.1365 15.8072 20.1984 15.8467C20.2604 15.8862 20.3599 15.9883 20.2825 16.1059L20.1775 16.039C20.2104 15.9874 20.1743 15.9378 20.1192 15.9027C20.0658 15.8687 20.0225 15.8532 19.9907 15.9031C19.9374 15.9829 20.2916 16.1335 20.183 16.3039C20.103 16.4295 19.9637 16.3747 19.8707 16.3155C19.7916 16.265 19.6733 16.1461 19.7504 16.0258L19.8588 16.0949Z" fill="#009440"/>
<path d="M20.4708 16.5031C20.4377 16.5496 20.4659 16.6049 20.5324 16.6523C20.5988 16.6997 20.6458 16.7005 20.6672 16.6707C20.7347 16.576 20.3813 16.4142 20.5015 16.2492C20.6051 16.1075 20.7632 16.2303 20.823 16.273C20.8828 16.3156 20.9768 16.4228 20.8934 16.5363L20.792 16.464C20.8276 16.4141 20.7941 16.3627 20.7409 16.3247C20.6894 16.288 20.647 16.2702 20.6126 16.3184C20.5552 16.3953 20.901 16.5642 20.7837 16.7287C20.6972 16.85 20.5609 16.788 20.4712 16.724C20.3948 16.6694 20.2829 16.5445 20.3662 16.4284L20.4708 16.5031Z" fill="#009440"/>
<path fill-rule="evenodd" clip-rule="evenodd" d="M21.0565 17.1542C21.1098 17.1966 21.1798 17.2138 21.2509 17.2019C21.3219 17.1899 21.3884 17.1499 21.4356 17.0906C21.4827 17.0313 21.5068 16.9576 21.5024 16.8856C21.498 16.8137 21.4656 16.7494 21.4122 16.707C21.3588 16.6645 21.2889 16.6473 21.2178 16.6593C21.1467 16.6712 21.0802 16.7112 21.0331 16.7705C20.9859 16.8298 20.9619 16.9035 20.9663 16.9755C20.9706 17.0474 21.0031 17.1117 21.0565 17.1542M21.1225 17.0711C21.1539 17.096 21.1957 17.1051 21.2388 17.0964C21.282 17.0877 21.3229 17.0618 21.3525 17.0246C21.3822 16.9873 21.3981 16.9416 21.3969 16.8976C21.3957 16.8537 21.3775 16.8149 21.3461 16.79C21.3148 16.7651 21.2729 16.756 21.2298 16.7647C21.1867 16.7734 21.1458 16.7993 21.1161 16.8365C21.0865 16.8738 21.0705 16.9195 21.0717 16.9635C21.0729 17.0075 21.0912 17.0462 21.1225 17.0711" fill="#009440"/>
<path d="M10.9609 14.6641L10.8815 14.9086L11.0038 14.9484" fill="white"/>
<path d="M10.9609 14.6641L11.0404 14.9086L10.9181 14.9484" fill="white"/>
<path d="M11.2109 14.8438H10.9538V14.9723" fill="white"/>
<path d="M11.2109 14.8438L11.0029 14.9949L10.9273 14.8909" fill="white"/>
<path d="M10.7188 14.8438L10.9268 14.9949L11.0024 14.8909" fill="white"/>
<path d="M10.7188 14.8438H10.9759V14.9723" fill="white"/>
<path d="M11.1172 15.125L11.0377 14.8804L10.9154 14.9202" fill="white"/>
<path d="M11.1172 15.125L10.9092 14.9739L10.9847 14.8698" fill="white"/>
<path d="M10.8125 15.1328L11.0205 14.9817L10.945 14.8777" fill="white"/>
<path d="M10.8125 15.1328L10.892 14.8883L11.0142 14.928" fill="white"/>
<path d="M11.4922 17.1875L11.4127 17.4321L11.535 17.4718" fill="white"/>
<path d="M11.4922 17.1875L11.5716 17.4321L11.4494 17.4718" fill="white"/>
<path d="M11.7422 17.3672H11.485V17.4958" fill="white"/>
<path d="M11.7422 17.3672L11.5342 17.5183L11.4586 17.4143" fill="white"/>
<path d="M11.25 17.3672L11.458 17.5183L11.5336 17.4143" fill="white"/>
<path d="M11.25 17.3672H11.5071V17.4958" fill="white"/>
<path d="M11.6484 17.6484L11.569 17.4039L11.4467 17.4436" fill="white"/>
<path d="M11.6484 17.6484L11.4404 17.4973L11.516 17.3933" fill="white"/>
<path d="M11.3438 17.6562L11.5518 17.5051L11.4762 17.4011" fill="white"/>
<path d="M11.3438 17.6562L11.4232 17.4117L11.5455 17.4514" fill="white"/>
<path d="M10.75 17.7656L10.6838 17.9694L10.7857 18.0025" fill="white"/>
<path d="M10.75 17.7656L10.8162 17.9694L10.7143 18.0025" fill="white"/>
<path d="M10.9531 17.9141H10.7388V18.0212" fill="white"/>
<path d="M10.9531 17.9141L10.7798 18.04L10.7168 17.9533" fill="white"/>
<path d="M10.5469 17.9141L10.7202 18.04L10.7832 17.9533" fill="white"/>
<path d="M10.5469 17.9141H10.7612V18.0212" fill="white"/>
<path d="M10.875 18.1484L10.8088 17.9446L10.7069 17.9777" fill="white"/>
<path d="M10.875 18.1484L10.7016 18.0225L10.7646 17.9358" fill="white"/>
<path d="M10.625 18.1562L10.7984 18.0303L10.7354 17.9436" fill="white"/>
<path d="M10.625 18.1562L10.6912 17.9525L10.7931 17.9856" fill="white"/>
<path d="M12.0781 16.9531L12.0403 17.0696L12.0985 17.0885" fill="white"/>
<path d="M12.0781 16.9531L12.116 17.0696L12.0577 17.0885" fill="white"/>
<path d="M12.1953 17.0391H12.0729V17.1003" fill="white"/>
<path d="M12.1953 17.0391L12.0962 17.111L12.0603 17.0615" fill="white"/>
<path d="M11.9688 17.0391L12.0678 17.111L12.1038 17.0615" fill="white"/>
<path d="M11.9688 17.0391H12.0912V17.1003" fill="white"/>
<path d="M12.1484 17.1797L12.1106 17.0632L12.0524 17.0822" fill="white"/>
<path d="M12.1484 17.1797L12.0494 17.1077L12.0854 17.0582" fill="white"/>
<path d="M12.0078 17.1719L12.1069 17.0999L12.0709 17.0504" fill="white"/>
<path d="M12.0078 17.1719L12.0457 17.0554L12.1039 17.0743" fill="white"/>
<path d="M12.7344 17.8281L12.6682 18.0319L12.7701 18.065" fill="white"/>
<path d="M12.7344 17.8281L12.8006 18.0319L12.6987 18.065" fill="white"/>
<path d="M12.9375 17.9766H12.7232V18.0837" fill="white"/>
<path d="M12.9375 17.9766L12.7641 18.1025L12.7012 18.0158" fill="white"/>
<path d="M12.5312 17.9766L12.7046 18.1025L12.7676 18.0158" fill="white"/>
<path d="M12.5312 17.9766H12.7455V18.0837" fill="white"/>
<path d="M12.8594 18.2109L12.7932 18.0071L12.6913 18.0402" fill="white"/>
<path d="M12.8594 18.2109L12.686 18.085L12.749 17.9983" fill="white"/>
<path d="M12.6094 18.2188L12.7827 18.0928L12.7198 18.0061" fill="white"/>
<path d="M12.6094 18.2188L12.6756 18.015L12.7775 18.0481" fill="white"/>
<path d="M12.5547 18.4688L12.5017 18.6318L12.5832 18.6583" fill="white"/>
<path d="M12.5547 18.4688L12.6077 18.6318L12.5261 18.6583" fill="white"/>
<path d="M12.7188 18.5859H12.5473V18.6717" fill="white"/>
<path d="M12.7188 18.5859L12.5801 18.6867L12.5297 18.6174" fill="white"/>
<path d="M12.3906 18.5859L12.5293 18.6867L12.5797 18.6174" fill="white"/>
<path d="M12.3906 18.5859H12.5621V18.6717" fill="white"/>
<path d="M12.6562 18.7734L12.6033 18.6104L12.5218 18.6369" fill="white"/>
<path d="M12.6562 18.7734L12.5176 18.6727L12.5679 18.6033" fill="white"/>
<path d="M12.4531 18.7812L12.5918 18.6805L12.5414 18.6111" fill="white"/>
<path d="M12.4531 18.7812L12.5061 18.6182L12.5876 18.6447" fill="white"/>
<path d="M17.7188 13.8828L17.6393 14.1274L17.7616 14.1671" fill="white"/>
<path d="M17.7188 13.8828L17.7982 14.1274L17.6759 14.1671" fill="white"/>
<path d="M17.9688 14.0625H17.7116V14.1911" fill="white"/>
<path d="M17.9688 14.0625L17.7607 14.2136L17.6851 14.1096" fill="white"/>
<path d="M17.4766 14.0625L17.6846 14.2136L17.7602 14.1096" fill="white"/>
<path d="M17.4766 14.0625H17.7337V14.1911" fill="white"/>
<path d="M17.875 14.3438L17.7955 14.0992L17.6733 14.1389" fill="white"/>
<path d="M17.875 14.3438L17.667 14.1926L17.7425 14.0886" fill="white"/>
<path d="M17.5703 14.3516L17.7783 14.2004L17.7028 14.0964" fill="white"/>
<path d="M17.5703 14.3516L17.6498 14.107L17.7721 14.1467" fill="white"/>
<path d="M20.0625 17.8516L19.983 18.0961L20.1053 18.1359" fill="white"/>
<path d="M20.0625 17.8516L20.142 18.0961L20.0197 18.1359" fill="white"/>
<path d="M20.3125 18.0312H20.0554V18.1598" fill="white"/>
<path d="M20.3125 18.0312L20.1045 18.1824L20.0289 18.0784" fill="white"/>
<path d="M19.8203 18.0312L20.0283 18.1824L20.1039 18.0784" fill="white"/>
<path d="M19.8203 18.0312H20.0775V18.1598" fill="white"/>
<path d="M20.2188 18.3125L20.1393 18.0679L20.017 18.1077" fill="white"/>
<path d="M20.2188 18.3125L20.0107 18.1614L20.0863 18.0573" fill="white"/>
<path d="M19.9141 18.3203L20.1221 18.1692L20.0465 18.0652" fill="white"/>
<path d="M19.9141 18.3203L19.9935 18.0758L20.1158 18.1155" fill="white"/>
<path d="M20.8906 17.9922L20.8377 18.1552L20.9192 18.1817" fill="white"/>
<path d="M20.8906 17.9922L20.9436 18.1552L20.8621 18.1817" fill="white"/>
<path d="M21.0547 18.1094H20.8833V18.1951" fill="white"/>
<path d="M21.0547 18.1094L20.916 18.2101L20.8656 18.1408" fill="white"/>
<path d="M20.7266 18.1094L20.8653 18.2101L20.9156 18.1408" fill="white"/>
<path d="M20.7266 18.1094H20.898V18.1951" fill="white"/>
<path d="M20.9922 18.2969L20.9392 18.1338L20.8577 18.1603" fill="white"/>
<path d="M20.9922 18.2969L20.8535 18.1961L20.9039 18.1268" fill="white"/>
<path d="M20.7891 18.3047L20.9278 18.2039L20.8774 18.1346" fill="white"/>
<path d="M20.7891 18.3047L20.842 18.1416L20.9236 18.1681" fill="white"/>
<path d="M20.3047 18.4219L20.2385 18.6257L20.3404 18.6588" fill="white"/>
<path d="M20.3047 18.4219L20.3709 18.6257L20.269 18.6588" fill="white"/>
<path d="M20.5078 18.5703H20.2935V18.6775" fill="white"/>
<path d="M20.5078 18.5703L20.3345 18.6963L20.2715 18.6096" fill="white"/>
<path d="M20.1016 18.5703L20.2749 18.6963L20.3379 18.6096" fill="white"/>
<path d="M20.1016 18.5703H20.3158V18.6775" fill="white"/>
<path d="M20.4297 18.8047L20.3635 18.6009L20.2616 18.634" fill="white"/>
<path d="M20.4297 18.8047L20.2563 18.6787L20.3193 18.5921" fill="white"/>
<path d="M20.1797 18.8125L20.353 18.6865L20.2901 18.5999" fill="white"/>
<path d="M20.1797 18.8125L20.2459 18.6087L20.3478 18.6418" fill="white"/>
<path d="M18.8594 19.6797L18.7932 19.8835L18.8951 19.9166" fill="white"/>
<path d="M18.8594 19.6797L18.9256 19.8835L18.8237 19.9166" fill="white"/>
<path d="M19.0625 19.8281H18.8482V19.9353" fill="white"/>
<path d="M19.0625 19.8281L18.8891 19.9541L18.8262 19.8674" fill="white"/>
<path d="M18.6562 19.8281L18.8296 19.9541L18.8926 19.8674" fill="white"/>
<path d="M18.6562 19.8281H18.8705V19.9353" fill="white"/>
<path d="M18.9844 20.0625L18.9182 19.8587L18.8163 19.8918" fill="white"/>
<path d="M18.9844 20.0625L18.811 19.9365L18.874 19.8499" fill="white"/>
<path d="M18.7344 20.0703L18.9077 19.9444L18.8448 19.8577" fill="white"/>
<path d="M18.7344 20.0703L18.8006 19.8665L18.9025 19.8996" fill="white"/>
<path d="M18.8516 20.3281L18.7986 20.4912L18.8801 20.5177" fill="white"/>
<path d="M18.8516 20.3281L18.9045 20.4912L18.823 20.5177" fill="white"/>
<path d="M19.0156 20.4453H18.8442V20.531" fill="white"/>
<path d="M19.0156 20.4453L18.8769 20.5461L18.8266 20.4767" fill="white"/>
<path d="M18.6875 20.4453L18.8262 20.5461L18.8766 20.4767" fill="white"/>
<path d="M18.6875 20.4453H18.8589V20.531" fill="white"/>
<path d="M18.9531 20.6328L18.9002 20.4698L18.8186 20.4963" fill="white"/>
<path d="M18.9531 20.6328L18.8144 20.532L18.8648 20.4627" fill="white"/>
<path d="M18.75 20.6406L18.8887 20.5399L18.8383 20.4705" fill="white"/>
<path d="M18.75 20.6406L18.803 20.4776L18.8845 20.5041" fill="white"/>
<path d="M19.4531 19.25L19.4002 19.413L19.4817 19.4395" fill="white"/>
<path d="M19.4531 19.25L19.5061 19.413L19.4246 19.4395" fill="white"/>
<path d="M19.6172 19.3672H19.4458V19.4529" fill="white"/>
<path d="M19.6172 19.3672L19.4785 19.468L19.4281 19.3986" fill="white"/>
<path d="M19.2891 19.3672L19.4278 19.468L19.4781 19.3986" fill="white"/>
<path d="M19.2891 19.3672H19.4605V19.4529" fill="white"/>
<path d="M19.5547 19.5547L19.5017 19.3916L19.4202 19.4181" fill="white"/>
<path d="M19.5547 19.5547L19.416 19.4539L19.4664 19.3846" fill="white"/>
<path d="M19.3516 19.5625L19.4903 19.4617L19.4399 19.3924" fill="white"/>
<path d="M19.3516 19.5625L19.4045 19.3995L19.4861 19.4259" fill="white"/>
<path d="M19.9375 18.9062L19.8713 19.11L19.9732 19.1432" fill="white"/>
<path d="M19.9375 18.9062L20.0037 19.11L19.9018 19.1432" fill="white"/>
<path d="M20.1406 19.0547H19.9263V19.1618" fill="white"/>
<path d="M20.1406 19.0547L19.9673 19.1806L19.9043 19.094" fill="white"/>
<path d="M19.7344 19.0547L19.9077 19.1806L19.9707 19.094" fill="white"/>
<path d="M19.7344 19.0547H19.9487V19.1618" fill="white"/>
<path d="M20.0625 19.2891L19.9963 19.0853L19.8944 19.1184" fill="white"/>
<path d="M20.0625 19.2891L19.8891 19.1631L19.9521 19.0764" fill="white"/>
<path d="M19.8125 19.2969L19.9859 19.1709L19.9229 19.0842" fill="white"/>
<path d="M19.8125 19.2969L19.8787 19.0931L19.9806 19.1262" fill="white"/>
<path d="M18.8359 19.1328L18.783 19.2959L18.8645 19.3223" fill="white"/>
<path d="M18.8359 19.1328L18.8889 19.2959L18.8074 19.3223" fill="white"/>
<path d="M19 19.25H18.8286V19.3357" fill="white"/>
<path d="M19 19.25L18.8613 19.3508L18.8109 19.2814" fill="white"/>
<path d="M18.6719 19.25L18.8106 19.3508L18.8609 19.2814" fill="white"/>
<path d="M18.6719 19.25H18.8433V19.3357" fill="white"/>
<path d="M18.9375 19.4375L18.8845 19.2745L18.803 19.3009" fill="white"/>
<path d="M18.9375 19.4375L18.7988 19.3367L18.8492 19.2674" fill="white"/>
<path d="M18.7344 19.4453L18.8731 19.3445L18.8227 19.2752" fill="white"/>
<path d="M18.7344 19.4453L18.7873 19.2823L18.8689 19.3088" fill="white"/>
<path d="M13.5703 16.0312L13.5041 16.235L13.606 16.2682" fill="white"/>
<path d="M13.5703 16.0312L13.6365 16.235L13.5346 16.2682" fill="white"/>
<path d="M13.7734 16.1797H13.5592V16.2868" fill="white"/>
<path d="M13.7734 16.1797L13.6001 16.3056L13.5371 16.219" fill="white"/>
<path d="M13.3672 16.1797L13.5405 16.3056L13.6035 16.219" fill="white"/>
<path d="M13.3672 16.1797H13.5815V16.2868" fill="white"/>
<path d="M13.6953 16.4141L13.6291 16.2103L13.5272 16.2434" fill="white"/>
<path d="M13.6953 16.4141L13.522 16.2881L13.5849 16.2014" fill="white"/>
<path d="M13.4453 16.4219L13.6187 16.2959L13.5557 16.2092" fill="white"/>
<path d="M13.4453 16.4219L13.5115 16.2181L13.6134 16.2512" fill="white"/>
<path d="M17.4922 15.5234L17.4392 15.6865L17.5207 15.713" fill="white"/>
<path d="M17.4922 15.5234L17.5452 15.6865L17.4636 15.713" fill="white"/>
<path d="M17.6562 15.6406H17.4848V15.7263" fill="white"/>
<path d="M17.6562 15.6406L17.5176 15.7414L17.4672 15.672" fill="white"/>
<path d="M17.3281 15.6406L17.4668 15.7414L17.5172 15.672" fill="white"/>
<path d="M17.3281 15.6406H17.4996V15.7263" fill="white"/>
<path d="M17.5938 15.8281L17.5408 15.6651L17.4593 15.6916" fill="white"/>
<path d="M17.5938 15.8281L17.4551 15.7274L17.5054 15.658" fill="white"/>
<path d="M17.3906 15.8359L17.5293 15.7352L17.4789 15.6658" fill="white"/>
<path d="M17.3906 15.8359L17.4436 15.6729L17.5251 15.6994" fill="white"/>
<path d="M15.8594 18.4375L15.7799 18.6821L15.9022 18.7218" fill="white"/>
<path d="M15.8594 18.4375L15.9388 18.6821L15.8166 18.7218" fill="white"/>
<path d="M16.1094 18.6172H15.8522V18.7458" fill="white"/>
<path d="M16.1094 18.6172L15.9013 18.7683L15.8258 18.6643" fill="white"/>
<path d="M15.6172 18.6172L15.8252 18.7683L15.9008 18.6643" fill="white"/>
<path d="M15.6172 18.6172H15.8743V18.7458" fill="white"/>
<path d="M16.0156 18.8984L15.9362 18.6539L15.8139 18.6936" fill="white"/>
<path d="M16.0156 18.8984L15.8076 18.7473L15.8832 18.6433" fill="white"/>
<path d="M15.7109 18.9062L15.919 18.7551L15.8434 18.6511" fill="white"/>
<path d="M15.7109 18.9062L15.7904 18.6617L15.9127 18.7014" fill="white"/>
<path d="M16.5469 17.2891L16.4807 17.4929L16.5826 17.526" fill="white"/>
<path d="M16.5469 17.2891L16.6131 17.4929L16.5112 17.526" fill="white"/>
<path d="M16.75 17.4375H16.5357V17.5446" fill="white"/>
<path d="M16.75 17.4375L16.5766 17.5635L16.5137 17.4768" fill="white"/>
<path d="M16.3438 17.4375L16.5171 17.5635L16.5801 17.4768" fill="white"/>
<path d="M16.3438 17.4375H16.558V17.5446" fill="white"/>
<path d="M16.6719 17.6719L16.6057 17.4681L16.5038 17.5012" fill="white"/>
<path d="M16.6719 17.6719L16.4985 17.5459L16.5615 17.4592" fill="white"/>
<path d="M16.4219 17.6797L16.5952 17.5537L16.5323 17.4671" fill="white"/>
<path d="M16.4219 17.6797L16.4881 17.4759L16.59 17.509" fill="white"/>
<path d="M15.8594 16.75L15.7932 16.9538L15.8951 16.9869" fill="white"/>
<path d="M15.8594 16.75L15.9256 16.9538L15.8237 16.9869" fill="white"/>
<path d="M16.0625 16.8984H15.8482V17.0056" fill="white"/>
<path d="M16.0625 16.8984L15.8891 17.0244L15.8262 16.9377" fill="white"/>
<path d="M15.6562 16.8984L15.8296 17.0244L15.8926 16.9377" fill="white"/>
<path d="M15.6562 16.8984H15.8705V17.0056" fill="white"/>
<path d="M15.9844 17.1328L15.9182 16.929L15.8163 16.9621" fill="white"/>
<path d="M15.9844 17.1328L15.811 17.0069L15.874 16.9202" fill="white"/>
<path d="M15.7344 17.1406L15.9077 17.0147L15.8448 16.928" fill="white"/>
<path d="M15.7344 17.1406L15.8006 16.9368L15.9025 16.9699" fill="white"/>
<path d="M15.25 17.3281L15.197 17.4912L15.2785 17.5177" fill="white"/>
<path d="M15.25 17.3281L15.303 17.4912L15.2215 17.5177" fill="white"/>
<path d="M15.4141 17.4453H15.2426V17.531" fill="white"/>
<path d="M15.4141 17.4453L15.2754 17.5461L15.225 17.4767" fill="white"/>
<path d="M15.0859 17.4453L15.2246 17.5461L15.275 17.4767" fill="white"/>
<path d="M15.0859 17.4453H15.2574V17.531" fill="white"/>
<path d="M15.3516 17.6328L15.2986 17.4698L15.2171 17.4963" fill="white"/>
<path d="M15.3516 17.6328L15.2129 17.532L15.2633 17.4627" fill="white"/>
<path d="M15.1484 17.6406L15.2871 17.5399L15.2367 17.4705" fill="white"/>
<path d="M15.1484 17.6406L15.2014 17.4776L15.2829 17.5041" fill="white"/>
<path d="M15.5547 17.7969L15.5168 17.9133L15.5751 17.9323" fill="white"/>
<path d="M15.5547 17.7969L15.5925 17.9133L15.5343 17.9323" fill="white"/>
<path d="M15.6719 17.8828H15.5494V17.944" fill="white"/>
<path d="M15.6719 17.8828L15.5728 17.9548L15.5368 17.9053" fill="white"/>
<path d="M15.4453 17.8828L15.5444 17.9548L15.5804 17.9053" fill="white"/>
<path d="M15.4453 17.8828H15.5678V17.944" fill="white"/>
<path d="M15.625 18.0234L15.5872 17.907L15.5289 17.9259" fill="white"/>
<path d="M15.625 18.0234L15.5259 17.9515L15.5619 17.9019" fill="white"/>
<path d="M15.4844 18.0156L15.5834 17.9437L15.5475 17.8941" fill="white"/>
<path d="M15.4844 18.0156L15.5222 17.8992L15.5804 17.9181" fill="white"/>
<path d="M17.6484 19.8281L17.5822 20.0319L17.6841 20.065" fill="white"/>
<path d="M17.6484 19.8281L17.7147 20.0319L17.6128 20.065" fill="white"/>
<path d="M17.8516 19.9766H17.6373V20.0837" fill="white"/>
<path d="M17.8516 19.9766L17.6782 20.1025L17.6152 20.0158" fill="white"/>
<path d="M17.4453 19.9766L17.6187 20.1025L17.6817 20.0158" fill="white"/>
<path d="M17.4453 19.9766H17.6596V20.0837" fill="white"/>
<path d="M17.7734 20.2109L17.7072 20.0071L17.6053 20.0402" fill="white"/>
<path d="M17.7734 20.2109L17.6001 20.085L17.6631 19.9983" fill="white"/>
<path d="M17.5234 20.2188L17.6968 20.0928L17.6338 20.0061" fill="white"/>
<path d="M17.5234 20.2188L17.5897 20.015L17.6916 20.0481" fill="white"/>
<path d="M18.1641 19.3359L18.1111 19.499L18.1926 19.5255" fill="white"/>
<path d="M18.1641 19.3359L18.217 19.499L18.1355 19.5255" fill="white"/>
<path d="M18.3203 19.4531H18.1489V19.5388" fill="white"/>
<path d="M18.3203 19.4531L18.1816 19.5539L18.1312 19.4845" fill="white"/>
<path d="M18 19.4531L18.1387 19.5539L18.1891 19.4845" fill="white"/>
<path d="M18 19.4531H18.1714V19.5388" fill="white"/>
<path d="M18.2656 19.6406L18.2127 19.4776L18.1311 19.5041" fill="white"/>
<path d="M18.2656 19.6406L18.1269 19.5399L18.1773 19.4705" fill="white"/>
<path d="M18.0625 19.6484L18.2012 19.5477L18.1508 19.4783" fill="white"/>
<path d="M18.0625 19.6484L18.1155 19.4854L18.197 19.5119" fill="white"/>
<path d="M17.1797 19.1953L17.1267 19.3584L17.2082 19.3848" fill="white"/>
<path d="M17.1797 19.1953L17.2327 19.3584L17.1511 19.3848" fill="white"/>
<path d="M17.3359 19.3125H17.1645V19.3982" fill="white"/>
<path d="M17.3359 19.3125L17.1972 19.4133L17.1469 19.3439" fill="white"/>
<path d="M17.0156 19.3125L17.1543 19.4133L17.2047 19.3439" fill="white"/>
<path d="M17.0156 19.3125H17.1871V19.3982" fill="white"/>
<path d="M17.2812 19.5L17.2283 19.337L17.1468 19.3634" fill="white"/>
<path d="M17.2812 19.5L17.1426 19.3992L17.1929 19.3299" fill="white"/>
<path d="M17.0781 19.5078L17.2168 19.407L17.1664 19.3377" fill="white"/>
<path d="M17.0781 19.5078L17.1311 19.3448L17.2126 19.3713" fill="white"/>
<path d="M13.4453 18.9297L13.3659 19.1742L13.4881 19.214" fill="white"/>
<path d="M13.4453 18.9297L13.5248 19.1742L13.4025 19.214" fill="white"/>
<path d="M13.6953 19.1094H13.4382V19.2379" fill="white"/>
<path d="M13.6953 19.1094L13.4873 19.2605L13.4117 19.1565" fill="white"/>
<path d="M13.2031 19.1094L13.4112 19.2605L13.4867 19.1565" fill="white"/>
<path d="M13.2031 19.1094H13.4603V19.2379" fill="white"/>
<path d="M13.6016 19.3906L13.5221 19.1461L13.3998 19.1858" fill="white"/>
<path d="M13.6016 19.3906L13.3935 19.2395L13.4691 19.1355" fill="white"/>
<path d="M13.2969 19.3984L13.5049 19.2473L13.4293 19.1433" fill="white"/>
<path d="M13.2969 19.3984L13.3763 19.1539L13.4986 19.1936" fill="white"/>
<path d="M15.8594 20.6094L15.8329 20.6909L15.8736 20.7041" fill="white"/>
<path d="M15.8594 20.6094L15.8859 20.6909L15.8451 20.7041" fill="white"/>
<path d="M15.9375 20.6719H15.8518V20.7147" fill="white"/>
<path d="M15.9375 20.6719L15.8682 20.7223L15.843 20.6876" fill="white"/>
<path d="M15.7734 20.6719L15.8428 20.7223L15.868 20.6876" fill="white"/>
<path d="M15.7734 20.6719H15.8592V20.7147" fill="white"/>
<path d="M15.9141 20.7656L15.8876 20.6841L15.8468 20.6973" fill="white"/>
<path d="M15.9141 20.7656L15.8447 20.7152L15.8699 20.6806" fill="white"/>
<path d="M15.8125 20.7656L15.8818 20.7152L15.8567 20.6806" fill="white"/>
<path d="M15.8125 20.7656L15.839 20.6841L15.8797 20.6973" fill="white"/>
<circle cx="16" cy="16" r="16" fill="url(#paint0_linear_642_1897)"/>
</g>
<path d="M16 0.5C24.5604 0.5 31.5 7.43959 31.5 16C31.5 24.5604 24.5604 31.5 16 31.5C7.43959 31.5 0.5 24.5604 0.5 16C0.5 7.43959 7.43959 0.5 16 0.5Z" stroke="#202020" stroke-opacity="0.2"/>
<defs>
<linearGradient id="paint0_linear_642_1897" x1="16" y1="15.5" x2="16" y2="32" gradientUnits="userSpaceOnUse">
<stop stop-color="white" stop-opacity="0"/>
<stop offset="0.455749" stop-color="white" stop-opacity="0.159512"/>
<stop offset="1" stop-color="white" stop-opacity="0.15"/>
</linearGradient>
<clipPath id="clip0_642_1897">
<path d="M0 16C0 7.16344 7.16344 0 16 0V0C24.8366 0 32 7.16344 32 16V16C32 24.8366 24.8366 32 16 32V32C7.16344 32 0 24.8366 0 16V16Z" fill="white"/>
</clipPath>
</defs>
</svg>
