<svg width="32" height="32" viewBox="0 0 32 32" fill="none" xmlns="http://www.w3.org/2000/svg">
<g clip-path="url(#clip0_1782_833)">
<path d="M0 16C0 7.1635 7.1635 0 16 0C24.8365 0 32 7.1635 32 16L16 17.3913L0 16Z" fill="#FFDA44"/>
<path d="M2.14062 23.9966C4.90719 28.7789 10.0774 31.9966 15.9996 31.9966C21.9218 31.9966 27.0921 28.7789 29.8586 23.9966L15.9996 22.9531L2.14062 23.9966Z" fill="#D80027"/>
<path d="M29.859 24C31.2204 21.6466 32 18.9144 32 16H0C0 18.9144 0.779625 21.6466 2.141 24H29.859Z" fill="#0052B4"/>
<circle cx="16" cy="16" r="16" fill="url(#paint0_linear_1782_833)"/>
</g>
<path d="M16 0.5C24.5604 0.5 31.5 7.43959 31.5 16C31.5 24.5604 24.5604 31.5 16 31.5C7.43959 31.5 0.5 24.5604 0.5 16C0.5 7.43959 7.43959 0.5 16 0.5Z" stroke="#202020" stroke-opacity="0.2"/>
<defs>
<linearGradient id="paint0_linear_1782_833" x1="16" y1="15.5" x2="16" y2="32" gradientUnits="userSpaceOnUse">
<stop stop-color="white" stop-opacity="0"/>
<stop offset="0.455749" stop-color="white" stop-opacity="0.159512"/>
<stop offset="1" stop-color="white" stop-opacity="0.15"/>
</linearGradient>
<clipPath id="clip0_1782_833">
<path d="M0 16C0 7.16344 7.16344 0 16 0C24.8366 0 32 7.16344 32 16C32 24.8366 24.8366 32 16 32C7.16344 32 0 24.8366 0 16Z" fill="white"/>
</clipPath>
</defs>
</svg>
