<svg width="32" height="32" viewBox="0 0 32 32" fill="none" xmlns="http://www.w3.org/2000/svg">
<g clip-path="url(#clip0_642_1896)">
<path d="M16 32C24.8366 32 32 24.8366 32 16C32 7.16344 24.8366 0 16 0C7.16344 0 0 7.16344 0 16C0 24.8366 7.16344 32 16 32Z" fill="#2775CA"/>
<path fill-rule="evenodd" clip-rule="evenodd" d="M19.6233 4.82801C19.2632 4.71297 18.9688 4.92671 18.9688 5.3048V6.23461C18.9688 6.48811 19.1598 6.77664 19.3978 6.86387C23.2202 8.26388 25.9555 11.9379 25.9555 16.2394C25.9555 20.5408 23.2202 24.2147 19.3978 25.6148C19.1368 25.7104 18.9688 25.9661 18.9688 26.2441V27.1738C18.9688 27.552 19.2632 27.7657 19.6233 27.6507C24.4537 26.1072 27.9516 21.5818 27.9516 16.2394C27.9516 10.8969 24.4537 6.37138 19.6233 4.82801Z" fill="white"/>
<path fill-rule="evenodd" clip-rule="evenodd" d="M12.983 5.3048C12.983 4.92671 12.6885 4.71297 12.3284 4.82801C7.49787 6.37138 4 10.8968 4 16.2394C4 21.582 7.49787 26.1072 12.3284 27.6507C12.6885 27.7657 12.983 27.552 12.983 27.1738V26.2441C12.983 25.9905 12.7919 25.702 12.5539 25.6148C8.73154 24.2147 5.99621 20.5407 5.99621 16.2394C5.99621 11.938 8.73154 8.26388 12.5539 6.86387C12.7919 6.77664 12.983 6.48811 12.983 6.2346V5.3048Z" fill="white"/>
<path d="M20.0584 19.3608L19.1448 18.9527C18.9437 18.8628 18.7065 18.9468 18.6091 19.1446C18.178 20.0196 17.4614 20.5773 16.5147 20.5773C15.6577 20.5773 14.9702 20.1576 14.4434 19.3094C14.2375 18.9813 14.0738 18.615 13.9492 18.2137H16.4024C16.5578 18.2137 16.7001 18.1261 16.7702 17.9873L17.3555 17.1973C17.494 16.9231 17.2948 16.5994 16.9878 16.5994H13.6732C13.6636 16.4294 13.6578 16.2561 13.6578 16.0776C13.656 15.9006 13.6609 15.7271 13.6702 15.5563H16.4024C16.5578 15.5563 16.7001 15.4688 16.7702 15.33L17.3555 14.54C17.4941 14.2659 17.2948 13.9421 16.9878 13.9421H13.9462C14.3911 12.4917 15.3198 11.5415 16.5147 11.5601C17.4252 11.5601 18.1321 12.0586 18.5855 12.875C18.6871 13.058 18.9158 13.1282 19.1072 13.0436L20.0255 12.6383C20.2452 12.5413 20.3387 12.2756 20.2224 12.0655C19.3747 10.5346 18.1388 9.76562 16.5147 9.76562C15.0327 9.76562 13.8452 10.3549 12.9435 11.5244C12.4165 12.2133 12.0496 13.0215 11.8319 13.9421H10.498C10.3425 13.9421 10.2003 14.0296 10.1302 14.1684L9.54479 14.9584C9.40636 15.2326 9.60556 15.5563 9.91263 15.5563H11.6115C11.6033 15.7278 11.5955 15.8997 11.5955 16.0776C11.5933 16.2538 11.5975 16.4274 11.6049 16.5994H10.498C10.3425 16.5994 10.2003 16.687 10.1302 16.8257L9.54479 17.6157C9.40636 17.8898 9.60556 18.2137 9.91263 18.2137H11.828C12.4338 20.7174 14.1778 22.4248 16.5147 22.3896C18.174 22.3896 19.4245 21.5647 20.2594 19.9223C20.3657 19.7131 20.2725 19.4566 20.0584 19.3608Z" fill="white"/>
<circle cx="16" cy="16" r="16" fill="url(#paint0_linear_642_1896)"/>
</g>
<path d="M16 0.5C24.5604 0.5 31.5 7.43959 31.5 16C31.5 24.5604 24.5604 31.5 16 31.5C7.43959 31.5 0.5 24.5604 0.5 16C0.5 7.43959 7.43959 0.5 16 0.5Z" stroke="#202020" stroke-opacity="0.2"/>
<defs>
<linearGradient id="paint0_linear_642_1896" x1="16" y1="15.5" x2="16" y2="32" gradientUnits="userSpaceOnUse">
<stop stop-color="white" stop-opacity="0"/>
<stop offset="0.455749" stop-color="white" stop-opacity="0.159512"/>
<stop offset="1" stop-color="white" stop-opacity="0.15"/>
</linearGradient>
<clipPath id="clip0_642_1896">
<path d="M0 16C0 7.16344 7.16344 0 16 0V0C24.8366 0 32 7.16344 32 16V16C32 24.8366 24.8366 32 16 32V32C7.16344 32 0 24.8366 0 16V16Z" fill="white"/>
</clipPath>
</defs>
</svg>
