<svg width="32" height="32" viewBox="0 0 32 32" fill="none" xmlns="http://www.w3.org/2000/svg">
<g clip-path="url(#clip0_1782_996)">
<path d="M0 0L32 0L32 32L0 32L0 0Z" fill="#EE1C25"/>
<path d="M18.2847 6.67488C17.5018 6.92554 17.0698 7.76394 17.3205 8.54688C17.361 8.67274 17.4175 8.79274 17.4895 8.90368C18.2143 10.0194 17.897 11.5117 16.7813 12.2365C16.6629 12.3133 16.5375 12.3799 16.4074 12.4349C15.3589 12.8781 14.8682 14.0877 15.3119 15.1362C15.4293 15.4141 15.6063 15.6626 15.8309 15.8647C14.2197 14.7181 13.8154 12.4962 14.9205 10.8562C14.8997 10.8386 14.8799 10.8199 14.8613 10.8002C13.7311 12.4653 14.1263 14.7266 15.7546 15.909C13.2842 14.9197 12.0837 12.1149 13.0735 9.64448C13.9077 7.56234 16.0682 6.33088 18.2847 6.67434" fill="white"/>
<path d="M16.1027 9.65865L14.6328 10.2997L16.1992 10.6453L15.1352 9.44531L15.2909 11.0416" fill="#EE1C25"/>
<path d="M25.5721 15.2904C25.0915 14.6232 24.1609 14.4718 23.4937 14.9523C23.3865 15.0296 23.2899 15.1208 23.2067 15.2238C22.3694 16.2579 20.8526 16.4174 19.8185 15.58C19.7086 15.491 19.6067 15.3928 19.5145 15.2862C18.7689 14.4259 17.467 14.3331 16.6067 15.0787C16.379 15.2766 16.1971 15.5214 16.0739 15.7971C16.6665 13.9102 18.6547 12.8398 20.5561 13.3838C20.5667 13.3587 20.5779 13.3342 20.5907 13.3102C18.6579 12.7496 16.6291 13.8248 16.0078 15.739C16.1854 13.084 18.4819 11.0755 21.1369 11.2531C23.3747 11.403 25.2137 13.0771 25.5715 15.2915" fill="white"/>
<path d="M22.0581 14.1375L20.9941 12.9375L21.1498 14.5338L21.9621 13.1508L20.4922 13.7919" fill="#EE1C25"/>
<path d="M8.66513 22.1873C9.44593 22.4449 10.2881 22.0204 10.5451 21.2396C10.5867 21.1137 10.6113 20.9836 10.6182 20.8513C10.6881 19.5228 11.8214 18.502 13.1499 18.5718C13.2913 18.5793 13.431 18.599 13.5686 18.631C14.6774 18.8886 15.7851 18.1985 16.0427 17.0897C16.111 16.7958 16.1137 16.4908 16.0513 16.1953C16.6811 18.07 15.7014 20.1052 13.8438 20.7825C13.8502 20.8092 13.855 20.8358 13.8587 20.8625C15.7515 20.1798 16.7611 18.118 16.1387 16.2038C17.5558 18.4561 16.8785 21.431 14.6257 22.8476C12.727 24.0417 10.2555 23.7681 8.66406 22.1873" fill="white"/>
<path d="M12.1875 21.0575L13.7539 21.4031L12.6899 20.2031L12.8456 21.7994L13.6579 20.4165" fill="#EE1C25"/>
<path d="M19.6275 24.8859C20.1139 24.223 19.9704 23.2912 19.3069 22.8048C19.2003 22.7264 19.0835 22.663 18.9603 22.6155C17.7181 22.1387 17.0979 20.7451 17.5747 19.503C17.6253 19.3712 17.6872 19.2438 17.7603 19.1227C18.348 18.1478 18.0339 16.8806 17.0589 16.2934C16.8003 16.1376 16.5112 16.0406 16.2109 16.0091C18.1885 15.9894 19.8211 17.5499 19.8915 19.5264C19.9187 19.5286 19.9453 19.5323 19.972 19.5371C19.908 17.5259 18.2584 15.9286 16.2461 15.9291C18.8264 15.2774 21.4461 16.8411 22.0973 19.4208C22.6467 21.5958 21.6227 23.8614 19.6275 24.8864" fill="white"/>
<path d="M19.642 21.19L20.4542 19.8071L18.9844 20.4482L20.5508 20.7938L19.4868 19.5938" fill="#EE1C25"/>
<path d="M7.83804 10.9375C7.83431 11.7599 8.49831 12.4292 9.32071 12.433C9.45297 12.4335 9.58471 12.4164 9.71271 12.3823C10.998 12.0378 12.3191 12.801 12.6631 14.0858C12.6999 14.2223 12.7239 14.3615 12.7362 14.5023C12.8338 15.6367 13.8327 16.4767 14.9671 16.3791C15.2679 16.353 15.5591 16.2618 15.8204 16.1108C14.2322 17.289 11.9943 16.9866 10.7756 15.4287C10.7527 15.4431 10.7287 15.4559 10.7042 15.4676C11.9383 17.057 14.2114 17.3796 15.8391 16.1967C14.1346 18.2404 11.0967 18.5151 9.05297 16.8111C7.33031 15.3743 6.82684 12.9391 7.83857 10.9375" fill="white"/>
<path d="M10.0019 13.9375L10.1576 15.5338L10.9699 14.1508L9.5 14.7919L11.0664 15.1375" fill="#EE1C25"/>
<circle cx="16" cy="16" r="16" fill="url(#paint0_linear_1782_996)"/>
</g>
<path d="M16 0.5C24.5604 0.5 31.5 7.43959 31.5 16C31.5 24.5604 24.5604 31.5 16 31.5C7.43959 31.5 0.5 24.5604 0.5 16C0.5 7.43959 7.43959 0.5 16 0.5Z" stroke="#202020" stroke-opacity="0.2"/>
<defs>
<linearGradient id="paint0_linear_1782_996" x1="16" y1="15.5" x2="16" y2="32" gradientUnits="userSpaceOnUse">
<stop stop-color="white" stop-opacity="0"/>
<stop offset="0.455749" stop-color="white" stop-opacity="0.159512"/>
<stop offset="1" stop-color="white" stop-opacity="0.15"/>
</linearGradient>
<clipPath id="clip0_1782_996">
<path d="M0 16C0 7.16344 7.16344 0 16 0C24.8366 0 32 7.16344 32 16C32 24.8366 24.8366 32 16 32C7.16344 32 0 24.8366 0 16Z" fill="white"/>
</clipPath>
</defs>
</svg>
