<svg width="32" height="32" viewBox="0 0 32 32" fill="none" xmlns="http://www.w3.org/2000/svg">
<g clip-path="url(#clip0_2498_1367)">
<circle cx="16" cy="16" r="16" fill="url(#paint0_linear_2498_1367)"/>
<g clip-path="url(#clip1_2498_1367)">
<path d="M-10.3672 -3.10938H41.7786V16.4453H-10.3672V-3.10938Z" fill="#E70011"/>
<path d="M-10.3672 16.4453H41.7786V36H-10.3672V16.4453Z" fill="white"/>
</g>
</g>
<path d="M16 0.5C24.5604 0.5 31.5 7.43959 31.5 16C31.5 24.5604 24.5604 31.5 16 31.5C7.43959 31.5 0.5 24.5604 0.5 16C0.5 7.43959 7.43959 0.5 16 0.5Z" stroke="#202020" stroke-opacity="0.2"/>
<defs>
<linearGradient id="paint0_linear_2498_1367" x1="16" y1="15.5" x2="16" y2="32" gradientUnits="userSpaceOnUse">
<stop stop-color="white" stop-opacity="0"/>
<stop offset="0.455749" stop-color="white" stop-opacity="0.159512"/>
<stop offset="1" stop-color="white" stop-opacity="0.15"/>
</linearGradient>
<clipPath id="clip0_2498_1367">
<path d="M0 16C0 7.16344 7.16344 0 16 0C24.8366 0 32 7.16344 32 16C32 24.8366 24.8366 32 16 32C7.16344 32 0 24.8366 0 16Z" fill="white"/>
</clipPath>
<clipPath id="clip1_2498_1367">
<rect width="52.1458" height="39.1094" fill="white" transform="translate(-10.3672 -3.10938)"/>
</clipPath>
</defs>
</svg>
