<svg width="32" height="32" viewBox="0 0 32 32" fill="none" xmlns="http://www.w3.org/2000/svg">
<g clip-path="url(#clip0_642_1891)">
<path d="M16 32C24.8366 32 32 24.8366 32 16C32 7.16344 24.8366 0 16 0C7.16344 0 0 7.16344 0 16C0 24.8366 7.16344 32 16 32Z" fill="#26A17B"/>
<path fill-rule="evenodd" clip-rule="evenodd" d="M17.9189 17.3843V17.3823C17.8089 17.3903 17.2419 17.4243 15.9769 17.4243C14.9669 17.4243 14.2559 17.3943 14.0059 17.3823V17.3853C10.1179 17.2143 7.21587 16.5373 7.21587 15.7273C7.21587 14.9183 10.1179 14.2413 14.0059 14.0673V16.7113C14.2599 16.7293 14.9879 16.7723 15.9939 16.7723C17.2009 16.7723 17.8059 16.7223 17.9189 16.7123V14.0693C21.7989 14.2423 24.6939 14.9193 24.6939 15.7273C24.6939 16.5373 21.7989 17.2123 17.9189 17.3843ZM17.9189 13.7943V11.4283H23.3329V7.82031H8.59188V11.4283H14.0059V13.7933C9.60587 13.9953 6.29688 14.8673 6.29688 15.9113C6.29688 16.9553 9.60587 17.8263 14.0059 18.0293V25.6113H17.9189V18.0273C22.3119 17.8253 25.6129 16.9543 25.6129 15.9113C25.6129 14.8683 22.3119 13.9973 17.9189 13.7943Z" fill="white"/>
<circle cx="16" cy="16" r="16" fill="url(#paint0_linear_642_1891)"/>
</g>
<path d="M16 0.5C24.5604 0.5 31.5 7.43959 31.5 16C31.5 24.5604 24.5604 31.5 16 31.5C7.43959 31.5 0.5 24.5604 0.5 16C0.5 7.43959 7.43959 0.5 16 0.5Z" stroke="#202020" stroke-opacity="0.2"/>
<defs>
<linearGradient id="paint0_linear_642_1891" x1="16" y1="15.5" x2="16" y2="32" gradientUnits="userSpaceOnUse">
<stop stop-color="white" stop-opacity="0"/>
<stop offset="0.455749" stop-color="white" stop-opacity="0.159512"/>
<stop offset="1" stop-color="white" stop-opacity="0.15"/>
</linearGradient>
<clipPath id="clip0_642_1891">
<path d="M0 16C0 7.16344 7.16344 0 16 0V0C24.8366 0 32 7.16344 32 16V16C32 24.8366 24.8366 32 16 32V32C7.16344 32 0 24.8366 0 16V16Z" fill="white"/>
</clipPath>
</defs>
</svg>
