<svg width="16" height="16" viewBox="0 0 16 16" fill="none" xmlns="http://www.w3.org/2000/svg">
<path d="M4.78294 7.73474L6.00008 3.88046L9.20541 14.0307C9.45061 14.8073 10.5495 14.8073 10.7947 14.0307L12.4887 8.6666H14.6667C15.0349 8.6666 15.3334 8.36814 15.3334 7.99994C15.3334 7.63174 15.0349 7.33327 14.6667 7.33327H12.4887C11.9069 7.33327 11.3924 7.7104 11.2172 8.26507L10.0001 12.1194L6.79475 1.96911C6.54952 1.19259 5.45065 1.19259 5.20543 1.96911L3.51149 7.33327H1.33341C0.965228 7.33327 0.666748 7.63174 0.666748 7.99994C0.666748 8.36814 0.965228 8.6666 1.33341 8.6666H3.51149C4.09319 8.6666 4.60776 8.28947 4.78294 7.73474Z" fill="#C8C8C8"/>
</svg>
 