<svg width="12" height="13" viewBox="0 0 12 13" fill="none" xmlns="http://www.w3.org/2000/svg">
<path fill-rule="evenodd" clip-rule="evenodd" d="M6 1.5C3.23857 1.5 1 3.73857 1 6.5C1 9.2614 3.23857 11.5 6 11.5C8.7614 11.5 11 9.2614 11 6.5C11 3.73857 8.7614 1.5 6 1.5ZM6 5C5.81135 5 5.6463 5.1043 5.56075 5.26076C5.42825 5.50305 5.1244 5.592 4.88213 5.4595C4.63986 5.32698 4.55089 5.02316 4.6834 4.78089C4.93732 4.31665 5.4313 4 6 4C6.7574 4 7.28345 4.50322 7.4332 5.0945C7.5838 5.68895 7.35505 6.3815 6.6708 6.7236C6.56615 6.77595 6.5 6.88295 6.5 7C6.5 7.27615 6.27615 7.5 6 7.5C5.72385 7.5 5.5 7.27615 5.5 7C5.5 6.5042 5.78015 6.0509 6.2236 5.8292C6.451 5.7155 6.5094 5.51985 6.46385 5.34005C6.4175 5.15709 6.26415 5 6 5ZM6 9C6.27615 9 6.5 8.77615 6.5 8.5C6.5 8.22385 6.27615 8 6 8C5.72385 8 5.5 8.22385 5.5 8.5C5.5 8.77615 5.72385 9 6 9Z" fill="#ADADAD"/>
</svg>
