<svg width="17" height="16" viewBox="0 0 17 16" fill="none" xmlns="http://www.w3.org/2000/svg">
<path fill-rule="evenodd" clip-rule="evenodd" d="M7.36258 0.861278C7.62293 0.600928 8.04504 0.600928 8.30539 0.861278L10.3054 2.86128C10.5657 3.12163 10.5657 3.54374 10.3054 3.80409L8.30539 5.80409C8.04504 6.06444 7.62293 6.06444 7.36258 5.80409C7.10223 5.54374 7.10223 5.12163 7.36258 4.86128L8.22451 3.99935H7.16732C4.95818 3.99935 3.16732 5.79021 3.16732 7.99935C3.16732 9.08947 3.60251 10.0766 4.31014 10.7987C4.56784 11.0617 4.56356 11.4838 4.30058 11.7415C4.03761 11.9992 3.61552 11.9949 3.35782 11.7319C2.41587 10.7707 1.83398 9.4523 1.83398 7.99935C1.83398 5.05383 4.2218 2.66602 7.16732 2.66602H8.22451L7.36258 1.80409C7.10223 1.54374 7.10223 1.12163 7.36258 0.861278ZM12.7007 4.2572C12.9637 3.9995 13.3858 4.00378 13.6435 4.26676C14.5854 5.22801 15.1673 6.54639 15.1673 7.99935C15.1673 10.9449 12.7795 13.3327 9.83398 13.3327H8.77679L9.63872 14.1946C9.89907 14.455 9.89907 14.8771 9.63872 15.1374C9.37837 15.3978 8.95626 15.3978 8.69591 15.1374L6.69591 13.1374C6.43556 12.8771 6.43556 12.455 6.69591 12.1946L8.69591 10.1946C8.95626 9.93426 9.37837 9.93426 9.63872 10.1946C9.89907 10.455 9.89907 10.8771 9.63872 11.1374L8.7768 11.9993H9.83398C12.0431 11.9993 13.834 10.2085 13.834 7.99935C13.834 6.90923 13.3988 5.92209 12.6912 5.19996C12.4335 4.93698 12.4377 4.51489 12.7007 4.2572Z" fill="#F9F9F9"/>
</svg>
