<svg width="14" height="10" viewBox="0 0 14 10" fill="none" xmlns="http://www.w3.org/2000/svg">
<path fill-rule="evenodd" clip-rule="evenodd" d="M3.42427 3.77573C3.65858 4.01003 3.65858 4.38995 3.42427 4.62425L2.04853 5.99999H7.8C8.13138 5.99999 8.4 6.26861 8.4 6.59999C8.4 6.93137 8.13138 7.19999 7.8 7.19999H2.04853L3.42427 8.57573C3.65858 8.81003 3.65858 9.18995 3.42427 9.42425C3.18995 9.65855 2.81005 9.65855 2.57573 9.42425L0.175734 7.02424C-0.058578 6.78994 -0.058578 6.41003 0.175734 6.17572L2.57573 3.77573C2.81005 3.54143 3.18995 3.54143 3.42427 3.77573Z" fill="black"/>
<path d="M10.6243 0.175734C10.39 -0.058578 10.01 -0.058578 9.77574 0.175734C9.54144 0.410052 9.54144 0.789948 9.77574 1.02427L11.1515 2.4H5.4C5.06863 2.4 4.8 2.66863 4.8 3C4.8 3.33137 5.06863 3.6 5.4 3.6H11.1515L9.77574 4.97574C9.54144 5.21004 9.54144 5.58996 9.77574 5.82426C10.01 6.05856 10.39 6.05856 10.6243 5.82426L13.0243 3.42427C13.2586 3.18995 13.2586 2.81005 13.0243 2.57573L10.6243 0.175734Z" fill="black"/>
</svg>
