<svg width="32" height="32" viewBox="0 0 32 32" fill="none" xmlns="http://www.w3.org/2000/svg">
<g clip-path="url(#clip0_642_1892)">
<circle cx="16" cy="16" r="16" fill="url(#paint0_linear_642_1892)"/>
<g clip-path="url(#clip1_642_1892)">
<path d="M-2.97656 0.171875H39.9974V10.9154H-2.97656V0.171875Z" fill="#00732F"/>
<path d="M-2.97656 10.9141H39.9974V21.6576H-2.97656V10.9141Z" fill="white"/>
<path d="M-2.97656 21.6641H39.9974V32.4076H-2.97656V21.6641Z" fill="black"/>
<path d="M-2.97656 0.171875H11.7957V32.4023H-2.97656V0.171875Z" fill="#FF0000"/>
</g>
</g>
<path d="M16 0.5C24.5604 0.5 31.5 7.43959 31.5 16C31.5 24.5604 24.5604 31.5 16 31.5C7.43959 31.5 0.5 24.5604 0.5 16C0.5 7.43959 7.43959 0.5 16 0.5Z" stroke="#202020" stroke-opacity="0.2"/>
<defs>
<linearGradient id="paint0_linear_642_1892" x1="16" y1="15.5" x2="16" y2="32" gradientUnits="userSpaceOnUse">
<stop stop-color="white" stop-opacity="0"/>
<stop offset="0.455749" stop-color="white" stop-opacity="0.159512"/>
<stop offset="1" stop-color="white" stop-opacity="0.15"/>
</linearGradient>
<clipPath id="clip0_642_1892">
<path d="M0 16C0 7.16344 7.16344 0 16 0C24.8366 0 32 7.16344 32 16C32 24.8366 24.8366 32 16 32C7.16344 32 0 24.8366 0 16Z" fill="white"/>
</clipPath>
<clipPath id="clip1_642_1892">
<rect width="42.974" height="32.2305" fill="white" transform="translate(-2.97656 0.171875)"/>
</clipPath>
</defs>
</svg>
