<svg width="32" height="32" viewBox="0 0 32 32" fill="none" xmlns="http://www.w3.org/2000/svg">
<g clip-path="url(#clip0_642_1898)">
<path d="M34.43 -1.21875H-2.42281C-3.81909 -1.21875 -5.15819 -0.664079 -6.14551 0.323242C-7.13283 1.31056 -7.6875 2.64966 -7.6875 4.04594L-7.6875 27.737C-7.6875 29.1333 -7.13283 30.4724 -6.14551 31.4597C-5.15819 32.4471 -3.81909 33.0017 -2.42281 33.0017H34.43C35.8263 33.0017 37.1654 32.4471 38.1527 31.4597C39.14 30.4724 39.6947 29.1333 39.6947 27.737V4.04594C39.6947 2.64966 39.14 1.31056 38.1527 0.323242C37.1654 -0.664079 35.8263 -1.21875 34.43 -1.21875Z" fill="#003399"/>
<path d="M16.54 7.53296L17.3952 6.91149H16.3386L16.0112 5.90625L15.6849 6.91149H14.6283L15.4834 7.53296L15.1561 8.5382L16.0112 7.91672L16.8664 8.5382L16.54 7.53296ZM16.54 24.9917L17.3952 24.3702H16.3386L16.0112 23.3649L15.6849 24.3702H14.6283L15.4834 24.9917L15.1561 25.9969L16.0112 25.3754L16.8664 25.9969L16.54 24.9917ZM7.81121 16.2618L8.66636 15.6403H7.60875L7.2824 14.6351L6.95504 15.6403H5.89844L6.75359 16.2618L6.42724 17.267L7.2824 16.6456L8.13756 17.267L7.81121 16.2618ZM8.92623 11.9457L9.78139 11.3243H8.72378L8.39743 10.319L8.07108 11.3243H7.01347L7.86862 11.9457L7.54227 12.951L8.39743 12.3295L9.25258 12.951L8.92623 11.9457ZM8.92623 20.6272L9.78139 20.0058H8.72378L8.39743 19.0005L8.07108 20.0058H7.01347L7.86862 20.6272L7.54227 21.6325L8.39743 21.011L9.25258 21.6325L8.92623 20.6272ZM12.1756 8.70238L13.0308 8.08091H11.9732L11.6468 7.07567L11.3205 8.08091H10.2629L11.118 8.70238L10.7917 9.70762L11.6468 9.08614L12.502 9.70762L12.1756 8.70238ZM12.1756 23.8786L13.0308 23.2572H11.9732L11.6468 22.2519L11.3205 23.2572H10.2629L11.118 23.8786L10.7917 24.8839L11.6468 24.2634L12.502 24.8839L12.1756 23.8786ZM24.1831 16.2618L23.3279 15.6403H24.3855L24.7119 14.6351L25.0392 15.6403H26.0958L25.2407 16.2618L25.567 17.267L24.7119 16.6456L23.8567 17.267L24.1831 16.2618ZM23.068 11.9457L22.2129 11.3243H23.2705L23.5969 10.319L23.9232 11.3243H24.9808L24.1257 11.9457L24.452 12.951L23.5969 12.3295L22.7417 12.951L23.068 11.9457ZM23.068 20.6272L22.2129 20.0058H23.2705L23.5969 19.0005L23.9232 20.0058H24.9808L24.1257 20.6272L24.452 21.6325L23.5969 21.011L22.7417 21.6325L23.068 20.6272ZM19.8187 8.70238L18.9635 8.08091H20.0211L20.3475 7.07567L20.6738 8.08091H21.7314L20.8763 8.70238L21.2026 9.70762L20.3475 9.08614L19.4923 9.70762L19.8187 8.70238ZM19.8187 23.8786L18.9635 23.2572H20.0211L20.3475 22.2519L20.6738 23.2572H21.7314L20.8763 23.8786L21.2026 24.8839L20.3475 24.2634L19.4923 24.8839L19.8187 23.8786Z" fill="#FFCC00"/>
<circle cx="16" cy="16" r="16" fill="url(#paint0_linear_642_1898)"/>
</g>
<path d="M16 0.5C24.5604 0.5 31.5 7.43959 31.5 16C31.5 24.5604 24.5604 31.5 16 31.5C7.43959 31.5 0.5 24.5604 0.5 16C0.5 7.43959 7.43959 0.5 16 0.5Z" stroke="#202020" stroke-opacity="0.2"/>
<defs>
<linearGradient id="paint0_linear_642_1898" x1="16" y1="15.5" x2="16" y2="32" gradientUnits="userSpaceOnUse">
<stop stop-color="white" stop-opacity="0"/>
<stop offset="0.455749" stop-color="white" stop-opacity="0.159512"/>
<stop offset="1" stop-color="white" stop-opacity="0.15"/>
</linearGradient>
<clipPath id="clip0_642_1898">
<path d="M0 16C0 7.16344 7.16344 0 16 0C24.8366 0 32 7.16344 32 16C32 24.8366 24.8366 32 16 32C7.16344 32 0 24.8366 0 16Z" fill="white"/>
</clipPath>
</defs>
</svg>
