<svg width="32" height="32" viewBox="0 0 32 32" fill="none" xmlns="http://www.w3.org/2000/svg">
<g clip-path="url(#clip0_642_1894)">
<path d="M-1 0H63V16L8.95556 31.6444L-1 0Z" fill="#0038A8"/>
<path d="M8.95556 16H63V32H-1L8.95556 16Z" fill="#CE1126"/>
<path d="M26.7127 16L-1 32V0L26.7127 16Z" fill="white"/>
<path d="M8.95781 19.1969C10.7251 19.1969 12.1578 17.7642 12.1578 15.9969C12.1578 14.2296 10.7251 12.7969 8.95781 12.7969C7.1905 12.7969 5.75781 14.2296 5.75781 15.9969C5.75781 17.7642 7.1905 19.1969 8.95781 19.1969Z" fill="#FCD116"/>
<path d="M8.96092 15.9977L7.83594 10.3412L8.17194 10.0049L8.96092 15.9977ZM8.96092 15.9977L8.54527 9.65783L8.96092 9.24219L9.37656 9.65783L8.96092 15.9977ZM8.96092 15.9977L9.74989 10.0049L10.0859 10.3412L8.96092 15.9977Z" fill="#FCD116"/>
<path d="M8.96096 15.9944L10.0859 21.651L9.74994 21.9873L8.96096 15.9944ZM8.96096 15.9944L9.3766 22.3344L8.96096 22.75L8.54532 22.3344L8.96096 15.9944ZM8.96096 15.9944L8.17198 21.9873L7.83598 21.651L8.96096 15.9944Z" fill="#FCD116"/>
<path d="M8.95538 16L14.6119 14.875L14.9483 15.211L8.95538 16ZM8.95538 16L15.2953 15.5843L15.7109 16L15.2953 16.4156L8.95538 16ZM8.95538 16L14.9483 16.789L14.6119 17.125L8.95538 16Z" fill="#FCD116"/>
<path d="M8.95868 16L3.30215 17.125L2.96579 16.789L8.95868 16ZM8.95868 16L2.61877 16.4157L2.20312 16L2.61877 15.5844L8.95868 16ZM8.95868 16L2.96579 15.211L3.30215 14.875L8.95868 16Z" fill="#FCD116"/>
<path d="M8.95608 16.0021L12.1604 11.2068L12.6358 11.2066L8.95608 16.0021ZM8.95608 16.0021L13.1452 11.2252L13.733 11.2252L13.733 11.813L8.95608 16.0021ZM8.95608 16.0021L13.7516 12.3223L13.7513 12.7978L8.95608 16.0021Z" fill="#FCD116"/>
<path d="M8.95798 16.0057L5.75369 20.801L5.27826 20.8013L8.95798 16.0057ZM8.95798 16.0057L4.76889 20.7826L4.18108 20.7826L4.18108 20.1948L8.95798 16.0057ZM8.95798 16.0057L4.16248 19.6855L4.16273 19.21L8.95798 16.0057Z" fill="#FCD116"/>
<path d="M8.95106 16.003L13.7463 19.2072L13.7466 19.6827L8.95106 16.003ZM8.95106 16.003L13.728 20.192L13.728 20.7799L13.1401 20.7799L8.95106 16.003ZM8.95106 16.003L12.6308 20.7985L12.1554 20.7982L8.95106 16.003Z" fill="#FCD116"/>
<path d="M8.94738 16.0049L4.15213 12.8006L4.15187 12.3251L8.94738 16.0049ZM8.94738 16.0049L4.17048 11.8158L4.17048 11.228L4.75829 11.228L8.94738 16.0049ZM8.94738 16.0049L5.26766 11.2094L5.74308 11.2096L8.94738 16.0049Z" fill="#FCD116"/>
<path d="M23.5129 16.0032L22.3104 16.4213L22.2844 17.6938L21.5154 16.6794L20.2969 17.0481L21.024 16.0032L20.2969 14.9582L21.5154 15.3269L22.2844 14.3125L22.3104 15.585L23.5129 16.0032Z" fill="#FCD116"/>
<path d="M0.599715 29.2289L0.838845 27.9784L-0.250223 27.3197L1.01281 27.1608L1.30274 25.9212L1.84416 27.0734L3.11269 26.9662L2.18413 27.8371L2.6781 29.0103L1.56307 28.3965L0.599715 29.2289Z" fill="#FCD116"/>
<path d="M0.598347 2.76797L1.56171 3.60029L2.67673 2.9865L2.18277 4.15973L3.11132 5.03062L1.84279 4.92341L1.30137 6.07559L1.01144 4.83599L-0.25159 4.67716L0.837478 4.01842L0.598347 2.76797Z" fill="#FCD116"/>
<circle cx="16" cy="16" r="16" fill="url(#paint0_linear_642_1894)"/>
</g>
<path d="M16 0.5C24.5604 0.5 31.5 7.43959 31.5 16C31.5 24.5604 24.5604 31.5 16 31.5C7.43959 31.5 0.5 24.5604 0.5 16C0.5 7.43959 7.43959 0.5 16 0.5Z" stroke="#202020" stroke-opacity="0.2"/>
<defs>
<linearGradient id="paint0_linear_642_1894" x1="16" y1="15.5" x2="16" y2="32" gradientUnits="userSpaceOnUse">
<stop stop-color="white" stop-opacity="0"/>
<stop offset="0.455749" stop-color="white" stop-opacity="0.159512"/>
<stop offset="1" stop-color="white" stop-opacity="0.15"/>
</linearGradient>
<clipPath id="clip0_642_1894">
<path d="M0 16C0 7.16344 7.16344 0 16 0C24.8366 0 32 7.16344 32 16C32 24.8366 24.8366 32 16 32C7.16344 32 0 24.8366 0 16Z" fill="white"/>
</clipPath>
</defs>
</svg>
