<svg width="32" height="32" viewBox="0 0 32 32" fill="none" xmlns="http://www.w3.org/2000/svg">
<g clip-path="url(#clip0_642_1895)">
<path d="M-10 0H54V32H-10V0Z" fill="#012169"/>
<mask id="mask0_642_1895" style="mask-type:luminance" maskUnits="userSpaceOnUse" x="-10" y="0" width="32" height="16">
<path d="M-10 0H22V16H-10V0Z" fill="white"/>
</mask>
<g mask="url(#mask0_642_1895)">
<path d="M-10 0L22 16L-10 0ZM22 0L-10 16L22 0Z" fill="black"/>
<path d="M-10 0L22 16M22 0L-10 16" stroke="white" stroke-width="3.2"/>
</g>
<mask id="mask1_642_1895" style="mask-type:luminance" maskUnits="userSpaceOnUse" x="-10" y="0" width="32" height="16">
<path d="M-10 0V8H22V16L-10 0ZM22 0H6V16H-10L22 0Z" fill="white"/>
</mask>
<g mask="url(#mask1_642_1895)">
<path d="M-10 0L22 16L-10 0ZM22 0L-10 16L22 0Z" fill="black"/>
<path d="M-10 0L22 16M22 0L-10 16" stroke="#E4002B" stroke-width="2.13333"/>
</g>
<path d="M6 0V16V0ZM-10 8H22H-10Z" fill="black"/>
<path d="M6 0V16M-10 8H22" stroke="white" stroke-width="5.33333"/>
<path d="M6 0V16V0ZM-10 8H22H-10Z" fill="black"/>
<path d="M6 0V16M-10 8H22" stroke="#E4002B" stroke-width="3.2"/>
<path d="M5.99997 19.1953L6.92558 22.0732L9.75275 21.0026L8.07983 23.5206L10.6796 25.0634L7.66789 25.3254L8.08262 28.32L5.99997 26.1286L3.91733 28.32L4.33206 25.3254L1.32031 25.0634L3.92013 23.5206L2.24718 21.0026L5.07435 22.0732L5.99997 19.1953Z" fill="white"/>
<path d="M30.0018 11.7109L30.4426 13.0814L31.7889 12.5715L30.9923 13.7706L32.2303 14.5053L30.7961 14.63L30.9936 16.056L30.0018 15.0125L29.0101 16.056L29.2076 14.63L27.7734 14.5053L29.0114 13.7706L28.2148 12.5715L29.5611 13.0814L30.0018 11.7109Z" fill="white"/>
<circle cx="16" cy="16" r="16" fill="url(#paint0_linear_642_1895)"/>
</g>
<path d="M16 0.5C24.5604 0.5 31.5 7.43959 31.5 16C31.5 24.5604 24.5604 31.5 16 31.5C7.43959 31.5 0.5 24.5604 0.5 16C0.5 7.43959 7.43959 0.5 16 0.5Z" stroke="#202020" stroke-opacity="0.2"/>
<defs>
<linearGradient id="paint0_linear_642_1895" x1="16" y1="15.5" x2="16" y2="32" gradientUnits="userSpaceOnUse">
<stop stop-color="white" stop-opacity="0"/>
<stop offset="0.455749" stop-color="white" stop-opacity="0.159512"/>
<stop offset="1" stop-color="white" stop-opacity="0.15"/>
</linearGradient>
<clipPath id="clip0_642_1895">
<path d="M0 16C0 7.16344 7.16344 0 16 0C24.8366 0 32 7.16344 32 16C32 24.8366 24.8366 32 16 32C7.16344 32 0 24.8366 0 16Z" fill="white"/>
</clipPath>
</defs>
</svg>
