<svg width="32" height="32" viewBox="0 0 32 32" fill="none" xmlns="http://www.w3.org/2000/svg">
<g clip-path="url(#clip0_1782_834)">
<path d="M16 32C24.8366 32 32 24.8366 32 16C32 7.16344 24.8366 0 16 0C7.16344 0 0 7.16344 0 16C0 24.8366 7.16344 32 16 32Z" fill="#F0F0F0"/>
<path d="M0 16.0001C0 7.1635 7.1635 0 16 0C24.8365 0 32 7.1635 32 16.0001" fill="#D80027"/>
<path d="M9.73544 8.34606C9.73544 6.01494 11.3738 4.06756 13.5615 3.58975C13.2253 3.51638 12.8764 3.47656 12.518 3.47656C9.82856 3.47656 7.64844 5.65669 7.64844 8.34613C7.64844 11.0356 9.82856 13.2157 12.518 13.2157C12.8763 13.2157 13.2252 13.1759 13.5615 13.1024C11.3738 12.6246 9.73544 10.6772 9.73544 8.34606Z" fill="#F0F0F0"/>
<path d="M15.9941 3.82812L16.3395 4.89094H17.4571L16.5529 5.54788L16.8983 6.61069L15.9941 5.95387L15.09 6.61069L15.4354 5.54788L14.5312 4.89094H15.6488L15.9941 3.82812Z" fill="#F0F0F0"/>
<path d="M13.2833 5.91406L13.6286 6.97694H14.7462L13.8421 7.63381L14.1874 8.69662L13.2833 8.03981L12.3791 8.69662L12.7245 7.63381L11.8203 6.97694H12.9379L13.2833 5.91406Z" fill="#F0F0F0"/>
<path d="M18.7051 5.91406L19.0505 6.97694H20.168L19.2638 7.63381L19.6093 8.69662L18.7051 8.03981L17.8009 8.69662L18.1463 7.63381L17.2422 6.97694H18.3597L18.7051 5.91406Z" fill="#F0F0F0"/>
<path d="M17.666 9.03906L18.0114 10.1019H19.1289L18.2248 10.7588L18.5701 11.8216L17.666 11.1648L16.7619 11.8216L17.1073 10.7588L16.2031 10.1019H17.3206L17.666 9.03906Z" fill="#F0F0F0"/>
<path d="M14.3301 9.03906L14.6754 10.1019H15.7931L14.8889 10.7588L15.2343 11.8216L14.3301 11.1648L13.4259 11.8216L13.7713 10.7588L12.8672 10.1019H13.9848L14.3301 9.03906Z" fill="#F0F0F0"/>
<circle cx="16" cy="16" r="16" fill="url(#paint0_linear_1782_834)"/>
</g>
<path d="M16 0.5C24.5604 0.5 31.5 7.43959 31.5 16C31.5 24.5604 24.5604 31.5 16 31.5C7.43959 31.5 0.5 24.5604 0.5 16C0.5 7.43959 7.43959 0.5 16 0.5Z" stroke="#202020" stroke-opacity="0.2"/>
<defs>
<linearGradient id="paint0_linear_1782_834" x1="16" y1="15.5" x2="16" y2="32" gradientUnits="userSpaceOnUse">
<stop stop-color="white" stop-opacity="0"/>
<stop offset="0.455749" stop-color="white" stop-opacity="0.159512"/>
<stop offset="1" stop-color="white" stop-opacity="0.15"/>
</linearGradient>
<clipPath id="clip0_1782_834">
<path d="M0 16C0 7.16344 7.16344 0 16 0C24.8366 0 32 7.16344 32 16C32 24.8366 24.8366 32 16 32C7.16344 32 0 24.8366 0 16Z" fill="white"/>
</clipPath>
</defs>
</svg>
