<svg width="32" height="32" viewBox="0 0 32 32" fill="none" xmlns="http://www.w3.org/2000/svg">
<g clip-path="url(#clip0_642_1890)">
<path d="M16 32C24.8366 32 32 24.8366 32 16C32 7.16344 24.8366 0 16 0C7.16344 0 0 7.16344 0 16C0 24.8366 7.16344 32 16 32Z" fill="#3E73C4"/>
<path d="M20.1661 18.1243C20.1661 16.0003 18.8861 15.2723 16.3261 14.9683C14.4981 14.7253 14.1331 14.2403 14.1331 13.3903C14.1331 12.5403 14.7431 11.9943 15.9611 11.9943C17.0581 11.9943 17.6681 12.3582 17.9721 13.2692C18.0038 13.3573 18.0617 13.4336 18.138 13.4878C18.2144 13.542 18.3055 13.5714 18.3991 13.5722H19.3741C19.4304 13.5738 19.4864 13.5638 19.5388 13.543C19.5912 13.5222 19.6387 13.491 19.6787 13.4512C19.7186 13.4115 19.75 13.3641 19.7711 13.3118C19.7921 13.2596 19.8023 13.2036 19.8011 13.1473V13.0872C19.6819 12.4281 19.3485 11.8269 18.8524 11.3768C18.3564 10.9267 17.7256 10.653 17.0581 10.5982V9.14225C17.0581 8.89925 16.8751 8.71725 16.5711 8.65625H15.6561C15.4131 8.65625 15.2301 8.83825 15.1691 9.14225V10.5382C13.3401 10.7803 12.1831 11.9942 12.1831 13.5122C12.1831 15.5142 13.4011 16.3033 15.9611 16.6073C17.6681 16.9103 18.2161 17.2753 18.2161 18.2463C18.2161 19.2163 17.3631 19.8843 16.2051 19.8843C14.6201 19.8843 14.0721 19.2172 13.8891 18.3062C13.8291 18.0642 13.6451 17.9422 13.4621 17.9422H12.4261C12.3699 17.9409 12.3139 17.9509 12.2617 17.9718C12.2095 17.9927 12.162 18.0239 12.1222 18.0636C12.0824 18.1034 12.051 18.1507 12.03 18.2029C12.0091 18.2551 11.9989 18.311 12.0001 18.3673V18.4272C12.2431 19.9452 13.2191 21.0372 15.2301 21.3412V22.7983C15.2301 23.0402 15.4131 23.2233 15.7171 23.2833H16.6321C16.8751 23.2833 17.0581 23.1013 17.1191 22.7983V21.3403C18.9481 21.0372 20.1661 19.7622 20.1661 18.1232V18.1243Z" fill="white"/>
<path d="M12.8913 24.497C8.13731 22.797 5.69931 17.517 7.46731 12.844C8.38131 10.294 10.3923 8.353 12.8913 7.442C13.1353 7.321 13.2563 7.139 13.2563 6.835V5.985C13.2563 5.743 13.1353 5.561 12.8913 5.5C12.8303 5.5 12.7083 5.5 12.6473 5.56C11.2757 5.98832 10.0024 6.68373 8.90073 7.60617C7.79902 8.52862 6.89066 9.65988 6.22795 10.9348C5.56525 12.2098 5.16128 13.6032 5.03932 15.0349C4.91736 16.4666 5.0798 17.9083 5.51731 19.277C6.61331 22.677 9.23431 25.287 12.6473 26.379C12.8913 26.5 13.1353 26.379 13.1953 26.136C13.2563 26.076 13.2563 26.014 13.2563 25.893V25.043C13.2563 24.861 13.0743 24.619 12.8913 24.497ZM19.3513 5.561C19.1073 5.439 18.8633 5.561 18.8033 5.803C18.7423 5.864 18.7423 5.925 18.7423 6.046V6.896C18.7423 7.139 18.9243 7.381 19.1073 7.503C23.8613 9.203 26.2993 14.483 24.5313 19.156C23.6173 21.706 21.6063 23.647 19.1073 24.558C18.8633 24.679 18.7423 24.861 18.7423 25.165V26.015C18.7423 26.257 18.8633 26.439 19.1073 26.5C19.1683 26.5 19.2903 26.5 19.3513 26.44C20.7229 26.0117 21.9962 25.3163 23.0979 24.3938C24.1996 23.4714 25.108 22.3401 25.7707 21.0652C26.4334 19.7902 26.8373 18.3968 26.9593 16.9651C27.0813 15.5334 26.9188 14.0917 26.4813 12.723C25.3853 9.263 22.7033 6.653 19.3513 5.561Z" fill="white"/>
<circle cx="16" cy="16" r="16" fill="url(#paint0_linear_642_1890)"/>
</g>
<path d="M16 0.5C24.5604 0.5 31.5 7.43959 31.5 16C31.5 24.5604 24.5604 31.5 16 31.5C7.43959 31.5 0.5 24.5604 0.5 16C0.5 7.43959 7.43959 0.5 16 0.5Z" stroke="#202020" stroke-opacity="0.2"/>
<defs>
<linearGradient id="paint0_linear_642_1890" x1="16" y1="15.5" x2="16" y2="32" gradientUnits="userSpaceOnUse">
<stop stop-color="white" stop-opacity="0"/>
<stop offset="0.455749" stop-color="white" stop-opacity="0.159512"/>
<stop offset="1" stop-color="white" stop-opacity="0.15"/>
</linearGradient>
<clipPath id="clip0_642_1890">
<path d="M0 16C0 7.16344 7.16344 0 16 0C24.8366 0 32 7.16344 32 16C32 24.8366 24.8366 32 16 32C7.16344 32 0 24.8366 0 16Z" fill="white"/>
</clipPath>
</defs>
</svg>
