<svg width="16" height="16" viewBox="0 0 16 16" fill="none" xmlns="http://www.w3.org/2000/svg">
<path fill-rule="evenodd" clip-rule="evenodd" d="M14.6666 8.00004C14.6666 11.6819 11.6818 14.6667 7.99992 14.6667C4.31802 14.6667 1.33325 11.6819 1.33325 8.00004C1.33325 4.31814 4.31802 1.33337 7.99992 1.33337C11.6818 1.33337 14.6666 4.31814 14.6666 8.00004ZM10.6666 10C10.6666 10.3682 10.3681 10.6667 9.99992 10.6667H6.66658C6.29839 10.6667 5.99992 10.3682 5.99992 10C5.99992 9.63185 6.29839 9.33337 6.66658 9.33337H8.39044L5.52851 6.47144C5.26816 6.2111 5.26816 5.78899 5.52851 5.52864C5.78886 5.26829 6.21097 5.26829 6.47132 5.52864L9.33325 8.39056V6.66671C9.33325 6.29852 9.63173 6.00004 9.99992 6.00004C10.3681 6.00004 10.6666 6.29852 10.6666 6.66671V10Z" fill="#F0F0F0"/>
</svg>
