<svg width="12" height="12" viewBox="0 0 12 12" fill="none" xmlns="http://www.w3.org/2000/svg">
<path fill-rule="evenodd" clip-rule="evenodd" d="M6 1C3.23858 1 1 3.23858 1 6C1 8.76142 3.23858 11 6 11C8.76142 11 11 8.76142 11 6C11 3.23858 8.76142 1 6 1ZM5.5 3.5C4.94772 3.5 4.5 3.94772 4.5 4.5V4.75C4.5 5.02614 4.72386 5.25 5 5.25C5.27614 5.25 5.5 5.02614 5.5 4.75V4.5H6.5V5L5.9 5.45C5.64819 5.63885 5.5 5.93524 5.5 6.25V6.5C5.5 6.77614 5.72386 7 6 7C6.27614 7 6.5 6.77614 6.5 6.5V6.25L7.1 5.8C7.35181 5.61115 7.5 5.31476 7.5 5V4.5C7.5 3.94772 7.05228 3.5 6.5 3.5H5.5ZM6.5 8C6.5 7.72386 6.27614 7.5 6 7.5C5.72386 7.5 5.5 7.72386 5.5 8V8.005C5.5 8.28114 5.72386 8.505 6 8.505C6.27614 8.505 6.5 8.28114 6.5 8.005V8Z" fill="#1C1C1C"/>
</svg>
