<svg width="16" height="16" viewBox="0 0 16 16" fill="none" xmlns="http://www.w3.org/2000/svg">
<path fill-rule="evenodd" clip-rule="evenodd" d="M14.6666 8.00004C14.6666 4.31814 11.6818 1.33337 7.99992 1.33337C4.31802 1.33337 1.33325 4.31814 1.33325 8.00004C1.33325 11.6819 4.31802 14.6667 7.99992 14.6667C11.6818 14.6667 14.6666 11.6819 14.6666 8.00004ZM10.6666 6.00004C10.6666 5.63185 10.3681 5.33337 9.99992 5.33337H6.66658C6.29839 5.33337 5.99992 5.63185 5.99992 6.00004C5.99992 6.36823 6.29839 6.66671 6.66658 6.66671H8.39044L5.52851 9.52864C5.26816 9.78899 5.26816 10.2111 5.52851 10.4714C5.78886 10.7318 6.21097 10.7318 6.47132 10.4714L9.33325 7.60952V9.33337C9.33325 9.70156 9.63173 10 9.99992 10C10.3681 10 10.6666 9.70156 10.6666 9.33337V6.00004Z" fill="#F0F0F0"/>
</svg>
